# xmcd
# 
# Track frame offsets:
#     150
#     16434
#     32697
#     50984
#     67063
#     81173
#     101991
#     130189
#     152709
#     175267
#     194557
#     209366
#     225603
#     243751
#     259618
#     285718
# 
# Disc length: 4059
# 
# Revision: 0
# Processed by: cddbd v1.5.2PL0 Copyright (c) Steve Scherf et al.
# Submitted via: fre:ac v1.0.27
# 
DISCID=e90fd910
DTITLE=Various Artist - Blues and Roots Australia 2008
DYEAR=2008
DGENRE=Blues
TTITLE0=The Others - No Time to Kill
TTITLE1=Andy Cowan - Everybody Wants to be Somebody Else
TTITLE2=Andrea Marr - If I Didn't Love You
TTITLE3=Mississippi Shakedown - Right Here Right Now
TTITLE4=Jaimi Faulkner - Reference Tone
TTITLE5=Michael Charles - The Tune
TTITLE6=Men In Blues - Battered and Bruised
TTITLE7=Pugsley Buzzard - Big Edna Bites Back
TTITLE8=Nick Charles - The New Memphis Blues
TTITLE9=The Detonators - She Don't Need Me
TTITLE10=On the Level - Bottom of the Bottle
TTITLE11=Jillian Jake - I've Changed My Mind
TTITLE12=Andy Cowan - Train I'm On
TTITLE13=Juzzie Smith - Do Right
TTITLE14=Danny Burton - Take a Step Back
TTITLE15=Karl Broadie - Sleppy Head
EXTD=
EXTT0=
EXTT1=
EXTT2=
EXTT3=
EXTT4=
EXTT5=
EXTT6=
EXTT7=
EXTT8=
EXTT9=
EXTT10=
EXTT11=
EXTT12=
EXTT13=
EXTT14=
EXTT15=
PLAYORDER=
